<svg height="48" version="1.0" width="48" xmlns="http://www.w3.org/2000/svg" xmlns:xlink="http://www.w3.org/1999/xlink"><defs><linearGradient id="c"><stop offset="0" stop-color="#fff"/><stop offset="1" stop-color="#fff" stop-opacity="0"/></linearGradient><linearGradient id="b"><stop offset="0"/><stop offset="1" stop-opacity="0"/></linearGradient><linearGradient id="a"><stop offset="0" stop-color="#f5a108" stop-opacity="0"/><stop offset="1" stop-color="#fefdc3" stop-opacity=".743"/></linearGradient><linearGradient gradientTransform="matrix(.94698 0 0 .48732 3.735 4.05)" gradientUnits="userSpaceOnUse" id="e" x1="22.82" x2="12.85" xlink:href="#a" y1="28.829" y2="12.239"/><linearGradient gradientTransform="matrix(2.0123 0 0 1.07997 .835 -1.34)" gradientUnits="userSpaceOnUse" id="f" x1="11.355" x2="6.358" xlink:href="#a" y1="32.757" y2="6.1"/><radialGradient cx="17.313" cy="25.531" fx="17.313" fy="25.531" gradientTransform="matrix(1 0 0 .35161 0 16.554)" gradientUnits="userSpaceOnUse" id="d" r="9.688" xlink:href="#b"/><linearGradient gradientTransform="translate(2.335 2.178) scale(.9034)" gradientUnits="userSpaceOnUse" id="g" x1="34.798" x2="17.445" xlink:href="#c" y1="29.173" y2="-6.889"/></defs><path d="M27 25.531a9.688 3.406 0 1 1-19.375 0 9.688 3.406 0 1 1 19.375 0z" style="marker:none" transform="translate(-13.527 -17.29) scale(2.18291)" opacity=".409" color="#000" fill="url(#d)" overflow="visible"/><path d="M22.262 36.309c.058-.086.997 1.112.997 1.112 4.118-4.48 14.629-12.853 17.496-19.835-5.799 6.431-15.273 16.777-18.493 18.723z" fill="#d4572d" fill-rule="evenodd"/><path d="M15.166 7.484c-4.799-.236-7.034 2.847-8.243 5.779-1.2 3.861.496 11.155 8.808 10.6 4.742 0 6.626-4.862 9.121-6.125 2.268-.857 2.447-.934 4.843-.934 3.33 0 9.35-2.41 9.35-4.8-1.023-1.92-3.74-5.336-8.733-4.753-3.178.37-6.185 2.641-6.97 3.772-1.924-1.697-4.38-3.539-8.176-3.539z" fill="url(#e)" fill-rule="evenodd"/><path d="M23.925 9.003c8.303-8.303 19.713-.65 19.638 7.224-.068 7.199-5.555 10.647-19.338 23.45C9.798 27.768 4.715 25.02 4.79 16.479c.075-8.84 9.844-15.476 19.135-7.475z" fill="#c71807" fill-rule="evenodd" stroke="#820000"/><path d="M5.078 16.189c-.218 7.18.795 6.042 2.624 8.317 1.8 2.236 9.642.828 16.683-5.81 7.124-6.717 14.386-2.915 17.907-6.655-2.623-4.497-10.808-9.945-18.344-2.395-9.657-8.727-18.652-.717-18.87 6.543z" opacity=".625" fill="url(#f)" fill-rule="evenodd"/><path d="M24.022 10.25c7.895-8.534 18.684-1.405 18.614 5.93-.064 6.707-5.574 10.397-18.414 22.325C10.782 27.41 5.648 24.451 5.718 16.495c.07-8.237 9.648-14.737 18.304-6.246z" opacity=".392" fill="none" stroke="url(#g)"/></svg>